<mxfile host="Electron" modified="2025-03-26T18:04:16.151Z" agent="Mozilla/5.0 (Windows NT 10.0; Win64; x64) AppleWebKit/537.36 (KHTML, like Gecko) draw.io/24.2.5 Chrome/120.0.6099.109 Electron/28.1.0 Safari/537.36" etag="fMt-eT-iQIb_StLrr737" version="24.2.5" type="device">
  <diagram id="R2lEEEUBdFMjLlhIrx00" name="Page-1">
    <mxGraphModel dx="1235" dy="731" grid="1" gridSize="10" guides="1" tooltips="1" connect="1" arrows="1" fold="1" page="1" pageScale="1" pageWidth="1600" pageHeight="1300" math="0" shadow="0" extFonts="Permanent Marker^https://fonts.googleapis.com/css?family=Permanent+Marker">
      <root>
        <mxCell id="0" />
        <mxCell id="1" parent="0" />
        <mxCell id="KCV1KPut3a65KkdSwojO-1" value="" style="rounded=0;whiteSpace=wrap;html=1;fillColor=none;" parent="1" vertex="1">
          <mxGeometry x="23" y="39.75" width="1557" height="1233.25" as="geometry" />
        </mxCell>
        <mxCell id="6VArdtB1oWuOT29RWD3p-13" value="publisher_table" style="swimlane;fontStyle=0;childLayout=stackLayout;horizontal=1;startSize=30;horizontalStack=0;resizeParent=1;resizeParentMax=0;resizeLast=0;collapsible=1;marginBottom=0;whiteSpace=wrap;html=1;fontSize=25;strokeColor=default;fillColor=default;" parent="1" vertex="1">
          <mxGeometry x="663" y="1058.75" width="280" height="90" as="geometry">
            <mxRectangle x="960" y="590" width="80" height="40" as="alternateBounds" />
          </mxGeometry>
        </mxCell>
        <mxCell id="6VArdtB1oWuOT29RWD3p-14" value="PublisherID&amp;nbsp;(PK)" style="text;align=left;verticalAlign=middle;spacingLeft=4;spacingRight=4;overflow=hidden;points=[[0,0.5],[1,0.5]];portConstraint=eastwest;rotatable=0;whiteSpace=wrap;html=1;fontSize=19;strokeColor=default;fillColor=default;" parent="6VArdtB1oWuOT29RWD3p-13" vertex="1">
          <mxGeometry y="30" width="280" height="30" as="geometry" />
        </mxCell>
        <mxCell id="6VArdtB1oWuOT29RWD3p-15" value="Publisher" style="text;align=left;verticalAlign=middle;spacingLeft=4;spacingRight=4;overflow=hidden;points=[[0,0.5],[1,0.5]];portConstraint=eastwest;rotatable=0;whiteSpace=wrap;html=1;fontSize=19;strokeColor=default;fillColor=default;" parent="6VArdtB1oWuOT29RWD3p-13" vertex="1">
          <mxGeometry y="60" width="280" height="30" as="geometry" />
        </mxCell>
        <mxCell id="6VArdtB1oWuOT29RWD3p-17" value="librarian" style="swimlane;fontStyle=0;childLayout=stackLayout;horizontal=1;startSize=30;horizontalStack=0;resizeParent=1;resizeParentMax=0;resizeLast=0;collapsible=1;marginBottom=0;whiteSpace=wrap;html=1;fontSize=25;strokeColor=default;fillColor=default;" parent="1" vertex="1">
          <mxGeometry x="663" y="888.75" width="280" height="120" as="geometry">
            <mxRectangle x="960" y="590" width="80" height="40" as="alternateBounds" />
          </mxGeometry>
        </mxCell>
        <mxCell id="6VArdtB1oWuOT29RWD3p-18" value="SupervisorID" style="text;align=left;verticalAlign=middle;spacingLeft=4;spacingRight=4;overflow=hidden;points=[[0,0.5],[1,0.5]];portConstraint=eastwest;rotatable=0;whiteSpace=wrap;html=1;fontSize=19;strokeColor=default;fillColor=default;" parent="6VArdtB1oWuOT29RWD3p-17" vertex="1">
          <mxGeometry y="30" width="280" height="30" as="geometry" />
        </mxCell>
        <mxCell id="6VArdtB1oWuOT29RWD3p-19" value="LibrarianID&amp;nbsp;(PK)" style="text;align=left;verticalAlign=middle;spacingLeft=4;spacingRight=4;overflow=hidden;points=[[0,0.5],[1,0.5]];portConstraint=eastwest;rotatable=0;whiteSpace=wrap;html=1;fontSize=19;strokeColor=default;fillColor=default;" parent="6VArdtB1oWuOT29RWD3p-17" vertex="1">
          <mxGeometry y="60" width="280" height="30" as="geometry" />
        </mxCell>
        <mxCell id="6VArdtB1oWuOT29RWD3p-20" value="LibrarianName" style="text;align=left;verticalAlign=middle;spacingLeft=4;spacingRight=4;overflow=hidden;points=[[0,0.5],[1,0.5]];portConstraint=eastwest;rotatable=0;whiteSpace=wrap;html=1;fontSize=19;strokeColor=default;fillColor=default;" parent="6VArdtB1oWuOT29RWD3p-17" vertex="1">
          <mxGeometry y="90" width="280" height="30" as="geometry" />
        </mxCell>
        <mxCell id="6VArdtB1oWuOT29RWD3p-21" value="supervisor" style="swimlane;fontStyle=0;childLayout=stackLayout;horizontal=1;startSize=30;horizontalStack=0;resizeParent=1;resizeParentMax=0;resizeLast=0;collapsible=1;marginBottom=0;whiteSpace=wrap;html=1;fontSize=25;strokeColor=default;fillColor=default;" parent="1" vertex="1">
          <mxGeometry x="663" y="738.75" width="280" height="90" as="geometry">
            <mxRectangle x="960" y="590" width="80" height="40" as="alternateBounds" />
          </mxGeometry>
        </mxCell>
        <mxCell id="6VArdtB1oWuOT29RWD3p-22" value="SupervisorID&amp;nbsp;(PK)" style="text;align=left;verticalAlign=middle;spacingLeft=4;spacingRight=4;overflow=hidden;points=[[0,0.5],[1,0.5]];portConstraint=eastwest;rotatable=0;whiteSpace=wrap;html=1;fontSize=19;strokeColor=default;fillColor=default;" parent="6VArdtB1oWuOT29RWD3p-21" vertex="1">
          <mxGeometry y="30" width="280" height="30" as="geometry" />
        </mxCell>
        <mxCell id="6VArdtB1oWuOT29RWD3p-23" value="SupervisorName" style="text;align=left;verticalAlign=middle;spacingLeft=4;spacingRight=4;overflow=hidden;points=[[0,0.5],[1,0.5]];portConstraint=eastwest;rotatable=0;whiteSpace=wrap;html=1;fontSize=19;strokeColor=default;fillColor=default;" parent="6VArdtB1oWuOT29RWD3p-21" vertex="1">
          <mxGeometry y="60" width="280" height="30" as="geometry" />
        </mxCell>
        <mxCell id="6VArdtB1oWuOT29RWD3p-7" value="original_data" style="swimlane;fontStyle=0;childLayout=stackLayout;horizontal=1;startSize=30;horizontalStack=0;resizeParent=1;resizeParentMax=0;resizeLast=0;collapsible=1;marginBottom=0;whiteSpace=wrap;html=1;fontSize=25;strokeColor=default;" parent="1" vertex="1">
          <mxGeometry x="60" y="258.75" width="280" height="990" as="geometry">
            <mxRectangle x="960" y="590" width="80" height="40" as="alternateBounds" />
          </mxGeometry>
        </mxCell>
        <mxCell id="6VArdtB1oWuOT29RWD3p-8" value="ISBN&amp;nbsp;(PK)" style="text;align=left;verticalAlign=middle;spacingLeft=4;spacingRight=4;overflow=hidden;points=[[0,0.5],[1,0.5]];portConstraint=eastwest;rotatable=0;fontSize=19;html=1;whiteSpace=wrap;labelBorderColor=none;strokeColor=default;fillColor=default;" parent="6VArdtB1oWuOT29RWD3p-7" vertex="1">
          <mxGeometry y="30" width="280" height="30" as="geometry" />
        </mxCell>
        <mxCell id="6VArdtB1oWuOT29RWD3p-9" value="local_ISBN" style="text;align=left;verticalAlign=middle;spacingLeft=4;spacingRight=4;overflow=hidden;points=[[0,0.5],[1,0.5]];portConstraint=eastwest;rotatable=0;fontSize=19;html=1;whiteSpace=wrap;labelBorderColor=none;strokeColor=default;fillColor=default;" parent="6VArdtB1oWuOT29RWD3p-7" vertex="1">
          <mxGeometry y="60" width="280" height="30" as="geometry" />
        </mxCell>
        <mxCell id="6VArdtB1oWuOT29RWD3p-10" value="Type" style="text;align=left;verticalAlign=middle;spacingLeft=4;spacingRight=4;overflow=hidden;points=[[0,0.5],[1,0.5]];portConstraint=eastwest;rotatable=0;fontSize=19;html=1;whiteSpace=wrap;labelBorderColor=none;strokeColor=default;fillColor=default;" parent="6VArdtB1oWuOT29RWD3p-7" vertex="1">
          <mxGeometry y="90" width="280" height="30" as="geometry" />
        </mxCell>
        <mxCell id="6VArdtB1oWuOT29RWD3p-49" value="Title" style="text;align=left;verticalAlign=middle;spacingLeft=4;spacingRight=4;overflow=hidden;points=[[0,0.5],[1,0.5]];portConstraint=eastwest;rotatable=0;fontSize=19;html=1;whiteSpace=wrap;labelBorderColor=none;strokeColor=default;fillColor=default;" parent="6VArdtB1oWuOT29RWD3p-7" vertex="1">
          <mxGeometry y="120" width="280" height="30" as="geometry" />
        </mxCell>
        <mxCell id="6VArdtB1oWuOT29RWD3p-51" value="Category" style="text;align=left;verticalAlign=middle;spacingLeft=4;spacingRight=4;overflow=hidden;points=[[0,0.5],[1,0.5]];portConstraint=eastwest;rotatable=0;fontSize=19;html=1;whiteSpace=wrap;labelBorderColor=none;strokeColor=default;fillColor=default;" parent="6VArdtB1oWuOT29RWD3p-7" vertex="1">
          <mxGeometry y="150" width="280" height="30" as="geometry" />
        </mxCell>
        <mxCell id="6VArdtB1oWuOT29RWD3p-52" value="AdditionDate" style="text;align=left;verticalAlign=middle;spacingLeft=4;spacingRight=4;overflow=hidden;points=[[0,0.5],[1,0.5]];portConstraint=eastwest;rotatable=0;fontSize=19;html=1;whiteSpace=wrap;labelBorderColor=none;strokeColor=default;fillColor=default;" parent="6VArdtB1oWuOT29RWD3p-7" vertex="1">
          <mxGeometry y="180" width="280" height="30" as="geometry" />
        </mxCell>
        <mxCell id="6VArdtB1oWuOT29RWD3p-53" value="Content" style="text;align=left;verticalAlign=middle;spacingLeft=4;spacingRight=4;overflow=hidden;points=[[0,0.5],[1,0.5]];portConstraint=eastwest;rotatable=0;fontSize=19;html=1;whiteSpace=wrap;labelBorderColor=none;strokeColor=default;fillColor=default;" parent="6VArdtB1oWuOT29RWD3p-7" vertex="1">
          <mxGeometry y="210" width="280" height="30" as="geometry" />
        </mxCell>
        <mxCell id="6VArdtB1oWuOT29RWD3p-54" value="ViewCount" style="text;align=left;verticalAlign=middle;spacingLeft=4;spacingRight=4;overflow=hidden;points=[[0,0.5],[1,0.5]];portConstraint=eastwest;rotatable=0;fontSize=19;html=1;whiteSpace=wrap;labelBorderColor=none;strokeColor=default;fillColor=default;" parent="6VArdtB1oWuOT29RWD3p-7" vertex="1">
          <mxGeometry y="240" width="280" height="30" as="geometry" />
        </mxCell>
        <mxCell id="6VArdtB1oWuOT29RWD3p-55" value="Comments" style="text;align=left;verticalAlign=middle;spacingLeft=4;spacingRight=4;overflow=hidden;points=[[0,0.5],[1,0.5]];portConstraint=eastwest;rotatable=0;fontSize=19;html=1;whiteSpace=wrap;labelBorderColor=none;strokeColor=default;fillColor=default;" parent="6VArdtB1oWuOT29RWD3p-7" vertex="1">
          <mxGeometry y="270" width="280" height="30" as="geometry" />
        </mxCell>
        <mxCell id="6VArdtB1oWuOT29RWD3p-56" value="Likes" style="text;align=left;verticalAlign=middle;spacingLeft=4;spacingRight=4;overflow=hidden;points=[[0,0.5],[1,0.5]];portConstraint=eastwest;rotatable=0;fontSize=19;html=1;whiteSpace=wrap;labelBorderColor=none;strokeColor=default;fillColor=default;" parent="6VArdtB1oWuOT29RWD3p-7" vertex="1">
          <mxGeometry y="300" width="280" height="30" as="geometry" />
        </mxCell>
        <mxCell id="6VArdtB1oWuOT29RWD3p-57" value="Dislikes" style="text;align=left;verticalAlign=middle;spacingLeft=4;spacingRight=4;overflow=hidden;points=[[0,0.5],[1,0.5]];portConstraint=eastwest;rotatable=0;fontSize=19;html=1;whiteSpace=wrap;labelBorderColor=none;strokeColor=default;fillColor=default;" parent="6VArdtB1oWuOT29RWD3p-7" vertex="1">
          <mxGeometry y="330" width="280" height="30" as="geometry" />
        </mxCell>
        <mxCell id="6VArdtB1oWuOT29RWD3p-58" value="InfoURL" style="text;align=left;verticalAlign=middle;spacingLeft=4;spacingRight=4;overflow=hidden;points=[[0,0.5],[1,0.5]];portConstraint=eastwest;rotatable=0;fontSize=19;html=1;whiteSpace=wrap;labelBorderColor=none;strokeColor=default;fillColor=default;" parent="6VArdtB1oWuOT29RWD3p-7" vertex="1">
          <mxGeometry y="360" width="280" height="30" as="geometry" />
        </mxCell>
        <mxCell id="6VArdtB1oWuOT29RWD3p-59" value="ContentLanguage" style="text;align=left;verticalAlign=middle;spacingLeft=4;spacingRight=4;overflow=hidden;points=[[0,0.5],[1,0.5]];portConstraint=eastwest;rotatable=0;fontSize=19;html=1;whiteSpace=wrap;labelBorderColor=none;strokeColor=default;fillColor=default;" parent="6VArdtB1oWuOT29RWD3p-7" vertex="1">
          <mxGeometry y="390" width="280" height="30" as="geometry" />
        </mxCell>
        <mxCell id="6VArdtB1oWuOT29RWD3p-60" value="ContentSource" style="text;align=left;verticalAlign=middle;spacingLeft=4;spacingRight=4;overflow=hidden;points=[[0,0.5],[1,0.5]];portConstraint=eastwest;rotatable=0;fontSize=19;html=1;whiteSpace=wrap;labelBorderColor=none;strokeColor=default;fillColor=default;" parent="6VArdtB1oWuOT29RWD3p-7" vertex="1">
          <mxGeometry y="420" width="280" height="30" as="geometry" />
        </mxCell>
        <mxCell id="6VArdtB1oWuOT29RWD3p-61" value="Image" style="text;align=left;verticalAlign=middle;spacingLeft=4;spacingRight=4;overflow=hidden;points=[[0,0.5],[1,0.5]];portConstraint=eastwest;rotatable=0;fontSize=19;html=1;whiteSpace=wrap;labelBorderColor=none;strokeColor=default;fillColor=default;" parent="6VArdtB1oWuOT29RWD3p-7" vertex="1">
          <mxGeometry y="450" width="280" height="30" as="geometry" />
        </mxCell>
        <mxCell id="6VArdtB1oWuOT29RWD3p-62" value="Rating" style="text;align=left;verticalAlign=middle;spacingLeft=4;spacingRight=4;overflow=hidden;points=[[0,0.5],[1,0.5]];portConstraint=eastwest;rotatable=0;fontSize=19;html=1;whiteSpace=wrap;labelBorderColor=none;strokeColor=default;fillColor=default;" parent="6VArdtB1oWuOT29RWD3p-7" vertex="1">
          <mxGeometry y="480" width="280" height="30" as="geometry" />
        </mxCell>
        <mxCell id="6VArdtB1oWuOT29RWD3p-63" value="Price" style="text;align=left;verticalAlign=middle;spacingLeft=4;spacingRight=4;overflow=hidden;points=[[0,0.5],[1,0.5]];portConstraint=eastwest;rotatable=0;fontSize=19;html=1;whiteSpace=wrap;labelBorderColor=none;strokeColor=default;fillColor=default;" parent="6VArdtB1oWuOT29RWD3p-7" vertex="1">
          <mxGeometry y="510" width="280" height="30" as="geometry" />
        </mxCell>
        <mxCell id="6VArdtB1oWuOT29RWD3p-64" value="Duration" style="text;align=left;verticalAlign=middle;spacingLeft=4;spacingRight=4;overflow=hidden;points=[[0,0.5],[1,0.5]];portConstraint=eastwest;rotatable=0;fontSize=19;html=1;whiteSpace=wrap;labelBorderColor=none;strokeColor=default;fillColor=default;" parent="6VArdtB1oWuOT29RWD3p-7" vertex="1">
          <mxGeometry y="540" width="280" height="30" as="geometry" />
        </mxCell>
        <mxCell id="6VArdtB1oWuOT29RWD3p-65" value="Location" style="text;align=left;verticalAlign=middle;spacingLeft=4;spacingRight=4;overflow=hidden;points=[[0,0.5],[1,0.5]];portConstraint=eastwest;rotatable=0;fontSize=19;html=1;whiteSpace=wrap;labelBorderColor=none;strokeColor=default;fillColor=default;" parent="6VArdtB1oWuOT29RWD3p-7" vertex="1">
          <mxGeometry y="570" width="280" height="30" as="geometry" />
        </mxCell>
        <mxCell id="6VArdtB1oWuOT29RWD3p-66" value="ContentLink" style="text;align=left;verticalAlign=middle;spacingLeft=4;spacingRight=4;overflow=hidden;points=[[0,0.5],[1,0.5]];portConstraint=eastwest;rotatable=0;fontSize=19;html=1;whiteSpace=wrap;labelBorderColor=none;strokeColor=default;fillColor=default;" parent="6VArdtB1oWuOT29RWD3p-7" vertex="1">
          <mxGeometry y="600" width="280" height="30" as="geometry" />
        </mxCell>
        <mxCell id="6VArdtB1oWuOT29RWD3p-76" value="LibrarianID" style="text;align=left;verticalAlign=middle;spacingLeft=4;spacingRight=4;overflow=hidden;points=[[0,0.5],[1,0.5]];portConstraint=eastwest;rotatable=0;fontSize=19;html=1;whiteSpace=wrap;labelBorderColor=none;shadow=0;glass=0;rounded=0;strokeColor=default;fillColor=default;" parent="6VArdtB1oWuOT29RWD3p-7" vertex="1">
          <mxGeometry y="630" width="280" height="30" as="geometry" />
        </mxCell>
        <mxCell id="6VArdtB1oWuOT29RWD3p-75" value="Format" style="text;align=left;verticalAlign=middle;spacingLeft=4;spacingRight=4;overflow=hidden;points=[[0,0.5],[1,0.5]];portConstraint=eastwest;rotatable=0;fontSize=19;html=1;whiteSpace=wrap;labelBorderColor=none;strokeColor=default;fillColor=default;" parent="6VArdtB1oWuOT29RWD3p-7" vertex="1">
          <mxGeometry y="660" width="280" height="30" as="geometry" />
        </mxCell>
        <mxCell id="6VArdtB1oWuOT29RWD3p-74" value="PublishingStatus" style="text;align=left;verticalAlign=middle;spacingLeft=4;spacingRight=4;overflow=hidden;points=[[0,0.5],[1,0.5]];portConstraint=eastwest;rotatable=0;fontSize=19;html=1;whiteSpace=wrap;labelBorderColor=none;strokeColor=default;fillColor=default;" parent="6VArdtB1oWuOT29RWD3p-7" vertex="1">
          <mxGeometry y="690" width="280" height="30" as="geometry" />
        </mxCell>
        <mxCell id="6VArdtB1oWuOT29RWD3p-73" value="ReleaseDate" style="text;align=left;verticalAlign=middle;spacingLeft=4;spacingRight=4;overflow=hidden;points=[[0,0.5],[1,0.5]];portConstraint=eastwest;rotatable=0;fontSize=19;html=1;whiteSpace=wrap;labelBorderColor=none;strokeColor=default;fillColor=default;" parent="6VArdtB1oWuOT29RWD3p-7" vertex="1">
          <mxGeometry y="720" width="280" height="30" as="geometry" />
        </mxCell>
        <mxCell id="6VArdtB1oWuOT29RWD3p-72" value="PublisherID" style="text;align=left;verticalAlign=middle;spacingLeft=4;spacingRight=4;overflow=hidden;points=[[0,0.5],[1,0.5]];portConstraint=eastwest;rotatable=0;fontSize=19;html=1;whiteSpace=wrap;labelBorderColor=none;strokeColor=default;fillColor=default;" parent="6VArdtB1oWuOT29RWD3p-7" vertex="1">
          <mxGeometry y="750" width="280" height="30" as="geometry" />
        </mxCell>
        <mxCell id="6VArdtB1oWuOT29RWD3p-71" value="Pages" style="text;align=left;verticalAlign=middle;spacingLeft=4;spacingRight=4;overflow=hidden;points=[[0,0.5],[1,0.5]];portConstraint=eastwest;rotatable=0;fontSize=19;html=1;whiteSpace=wrap;labelBorderColor=none;strokeColor=default;fillColor=default;" parent="6VArdtB1oWuOT29RWD3p-7" vertex="1">
          <mxGeometry y="780" width="280" height="30" as="geometry" />
        </mxCell>
        <mxCell id="6VArdtB1oWuOT29RWD3p-70" value="Weight" style="text;align=left;verticalAlign=middle;spacingLeft=4;spacingRight=4;overflow=hidden;points=[[0,0.5],[1,0.5]];portConstraint=eastwest;rotatable=0;fontSize=19;html=1;whiteSpace=wrap;labelBorderColor=none;strokeColor=default;fillColor=default;" parent="6VArdtB1oWuOT29RWD3p-7" vertex="1">
          <mxGeometry y="810" width="280" height="30" as="geometry" />
        </mxCell>
        <mxCell id="6VArdtB1oWuOT29RWD3p-69" value="Dimensions" style="text;align=left;verticalAlign=middle;spacingLeft=4;spacingRight=4;overflow=hidden;points=[[0,0.5],[1,0.5]];portConstraint=eastwest;rotatable=0;fontSize=19;html=1;whiteSpace=wrap;labelBorderColor=none;strokeColor=default;fillColor=default;" parent="6VArdtB1oWuOT29RWD3p-7" vertex="1">
          <mxGeometry y="840" width="280" height="30" as="geometry" />
        </mxCell>
        <mxCell id="6VArdtB1oWuOT29RWD3p-68" value="Material" style="text;align=left;verticalAlign=middle;spacingLeft=4;spacingRight=4;overflow=hidden;points=[[0,0.5],[1,0.5]];portConstraint=eastwest;rotatable=0;fontSize=19;html=1;whiteSpace=wrap;labelBorderColor=none;strokeColor=default;fillColor=default;" parent="6VArdtB1oWuOT29RWD3p-7" vertex="1">
          <mxGeometry y="870" width="280" height="30" as="geometry" />
        </mxCell>
        <mxCell id="6VArdtB1oWuOT29RWD3p-67" value="Color" style="text;align=left;verticalAlign=middle;spacingLeft=4;spacingRight=4;overflow=hidden;points=[[0,0.5],[1,0.5]];portConstraint=eastwest;rotatable=0;fontSize=19;html=1;whiteSpace=wrap;labelBorderColor=none;strokeColor=default;fillColor=default;" parent="6VArdtB1oWuOT29RWD3p-7" vertex="1">
          <mxGeometry y="900" width="280" height="30" as="geometry" />
        </mxCell>
        <mxCell id="6VArdtB1oWuOT29RWD3p-78" value="CountInventory" style="text;align=left;verticalAlign=middle;spacingLeft=4;spacingRight=4;overflow=hidden;points=[[0,0.5],[1,0.5]];portConstraint=eastwest;rotatable=0;fontSize=19;html=1;whiteSpace=wrap;labelBorderColor=none;strokeColor=default;fillColor=default;" parent="6VArdtB1oWuOT29RWD3p-7" vertex="1">
          <mxGeometry y="930" width="280" height="30" as="geometry" />
        </mxCell>
        <mxCell id="6VArdtB1oWuOT29RWD3p-77" value="BorrowCount" style="text;align=left;verticalAlign=middle;spacingLeft=4;spacingRight=4;overflow=hidden;points=[[0,0.5],[1,0.5]];portConstraint=eastwest;rotatable=0;fontSize=19;html=1;whiteSpace=wrap;labelBorderColor=none;imageAspect=1;strokeWidth=1;strokeColor=default;fillColor=default;" parent="6VArdtB1oWuOT29RWD3p-7" vertex="1">
          <mxGeometry y="960" width="280" height="30" as="geometry" />
        </mxCell>
        <mxCell id="6VArdtB1oWuOT29RWD3p-86" value="" style="endArrow=none;html=1;rounded=0;exitX=1;exitY=0.5;exitDx=0;exitDy=0;entryX=0;entryY=0.5;entryDx=0;entryDy=0;" parent="1" source="6VArdtB1oWuOT29RWD3p-142" target="6VArdtB1oWuOT29RWD3p-14" edge="1">
          <mxGeometry width="50" height="50" relative="1" as="geometry">
            <mxPoint x="423" y="998.75" as="sourcePoint" />
            <mxPoint x="473" y="948.75" as="targetPoint" />
            <Array as="points">
              <mxPoint x="503" y="1023.75" />
              <mxPoint x="503" y="1103.75" />
            </Array>
          </mxGeometry>
        </mxCell>
        <mxCell id="6VArdtB1oWuOT29RWD3p-88" value="" style="endArrow=none;html=1;rounded=0;exitX=1;exitY=0.5;exitDx=0;exitDy=0;entryX=0;entryY=0.5;entryDx=0;entryDy=0;" parent="1" source="6VArdtB1oWuOT29RWD3p-140" target="6VArdtB1oWuOT29RWD3p-19" edge="1">
          <mxGeometry width="50" height="50" relative="1" as="geometry">
            <mxPoint x="453" y="918.75" as="sourcePoint" />
            <mxPoint x="503" y="868.75" as="targetPoint" />
            <Array as="points">
              <mxPoint x="503" y="903.75" />
              <mxPoint x="503" y="963.75" />
            </Array>
          </mxGeometry>
        </mxCell>
        <mxCell id="6VArdtB1oWuOT29RWD3p-89" value="" style="endArrow=none;html=1;rounded=0;entryX=1;entryY=0.5;entryDx=0;entryDy=0;strokeColor=default;" parent="1" target="6VArdtB1oWuOT29RWD3p-22" edge="1">
          <mxGeometry width="50" height="50" relative="1" as="geometry">
            <mxPoint x="1053" y="783.75" as="sourcePoint" />
            <mxPoint x="1053" y="778.75" as="targetPoint" />
            <Array as="points" />
          </mxGeometry>
        </mxCell>
        <mxCell id="6VArdtB1oWuOT29RWD3p-96" value="&lt;font style=&quot;font-size: 21px;&quot;&gt;0..*&lt;/font&gt;" style="text;html=1;align=center;verticalAlign=middle;whiteSpace=wrap;rounded=0;" parent="1" vertex="1">
          <mxGeometry x="343" y="903.75" width="60" height="30" as="geometry" />
        </mxCell>
        <mxCell id="6VArdtB1oWuOT29RWD3p-97" value="&lt;font style=&quot;font-size: 21px;&quot;&gt;1..1&lt;/font&gt;" style="text;html=1;align=center;verticalAlign=middle;whiteSpace=wrap;rounded=0;" parent="1" vertex="1">
          <mxGeometry x="603" y="933.75" width="60" height="30" as="geometry" />
        </mxCell>
        <mxCell id="6VArdtB1oWuOT29RWD3p-102" value="Every librarian might add an item or not." style="text;html=1;align=center;verticalAlign=middle;whiteSpace=wrap;rounded=0;fillColor=#f0a30a;fontColor=#000000;strokeColor=#BD7000;" parent="1" vertex="1">
          <mxGeometry x="353" y="828.75" width="130" height="69" as="geometry" />
        </mxCell>
        <mxCell id="6VArdtB1oWuOT29RWD3p-103" value="&lt;font style=&quot;font-size: 21px;&quot;&gt;1..*&lt;/font&gt;" style="text;html=1;align=center;verticalAlign=middle;whiteSpace=wrap;rounded=0;" parent="1" vertex="1">
          <mxGeometry x="343" y="1022.75" width="60" height="30" as="geometry" />
        </mxCell>
        <mxCell id="6VArdtB1oWuOT29RWD3p-104" value="&lt;font style=&quot;font-size: 21px;&quot;&gt;0..1&lt;/font&gt;" style="text;html=1;align=center;verticalAlign=middle;whiteSpace=wrap;rounded=0;" parent="1" vertex="1">
          <mxGeometry x="603" y="1072.75" width="60" height="30" as="geometry" />
        </mxCell>
        <mxCell id="6VArdtB1oWuOT29RWD3p-105" value="&lt;font style=&quot;font-size: 21px;&quot;&gt;1..1&lt;/font&gt;" style="text;html=1;align=center;verticalAlign=middle;whiteSpace=wrap;rounded=0;" parent="1" vertex="1">
          <mxGeometry x="943" y="753.75" width="60" height="30" as="geometry" />
        </mxCell>
        <mxCell id="6VArdtB1oWuOT29RWD3p-106" value="&lt;font style=&quot;font-size: 21px;&quot;&gt;0..*&lt;/font&gt;" style="text;html=1;align=center;verticalAlign=middle;whiteSpace=wrap;rounded=0;" parent="1" vertex="1">
          <mxGeometry x="943" y="903.75" width="60" height="30" as="geometry" />
        </mxCell>
        <mxCell id="6VArdtB1oWuOT29RWD3p-107" value="Every item can be added by only one librarian." style="text;html=1;align=center;verticalAlign=middle;whiteSpace=wrap;rounded=0;fillColor=#f0a30a;fontColor=#000000;strokeColor=#BD7000;" parent="1" vertex="1">
          <mxGeometry x="523" y="858.75" width="130" height="69" as="geometry" />
        </mxCell>
        <mxCell id="6VArdtB1oWuOT29RWD3p-108" value="Items do not have to be published and can be only published by one publisher." style="text;html=1;align=center;verticalAlign=middle;whiteSpace=wrap;rounded=0;fillColor=#f0a30a;fontColor=#000000;strokeColor=#BD7000;" parent="1" vertex="1">
          <mxGeometry x="523" y="1108.75" width="130" height="69" as="geometry" />
        </mxCell>
        <mxCell id="6VArdtB1oWuOT29RWD3p-109" value="Publishers need to publish at least one item to exist." style="text;html=1;align=center;verticalAlign=middle;whiteSpace=wrap;rounded=0;fillColor=#f0a30a;fontColor=#000000;strokeColor=#BD7000;" parent="1" vertex="1">
          <mxGeometry x="353" y="1058.75" width="130" height="69" as="geometry" />
        </mxCell>
        <mxCell id="6VArdtB1oWuOT29RWD3p-110" value="Supervisors do not need to supervise a librarian and can supervise more than 1." style="text;html=1;align=center;verticalAlign=middle;whiteSpace=wrap;rounded=0;fillColor=#f0a30a;fontColor=#000000;strokeColor=#BD7000;" parent="1" vertex="1">
          <mxGeometry x="1063" y="879.75" width="130" height="69" as="geometry" />
        </mxCell>
        <mxCell id="6VArdtB1oWuOT29RWD3p-111" value="Every librarian has to have one supervisor." style="text;html=1;align=center;verticalAlign=middle;whiteSpace=wrap;rounded=0;fillColor=#f0a30a;fontColor=#000000;strokeColor=#BD7000;" parent="1" vertex="1">
          <mxGeometry x="1063" y="759.75" width="130" height="69" as="geometry" />
        </mxCell>
        <mxCell id="6VArdtB1oWuOT29RWD3p-115" value="borrower" style="swimlane;fontStyle=0;childLayout=stackLayout;horizontal=1;startSize=30;horizontalStack=0;resizeParent=1;resizeParentMax=0;resizeLast=0;collapsible=1;marginBottom=0;whiteSpace=wrap;html=1;fontSize=25;strokeColor=default;fillColor=default;" parent="1" vertex="1">
          <mxGeometry x="1263" y="289.75" width="280" height="120" as="geometry">
            <mxRectangle x="960" y="590" width="80" height="40" as="alternateBounds" />
          </mxGeometry>
        </mxCell>
        <mxCell id="6VArdtB1oWuOT29RWD3p-116" value="BorrowerID&amp;nbsp;(PK)" style="text;strokeColor=default;fillColor=default;align=left;verticalAlign=middle;spacingLeft=4;spacingRight=4;overflow=hidden;points=[[0,0.5],[1,0.5]];portConstraint=eastwest;rotatable=0;whiteSpace=wrap;html=1;fontSize=19;" parent="6VArdtB1oWuOT29RWD3p-115" vertex="1">
          <mxGeometry y="30" width="280" height="30" as="geometry" />
        </mxCell>
        <mxCell id="6VArdtB1oWuOT29RWD3p-117" value="BorrowerName" style="text;strokeColor=default;fillColor=default;align=left;verticalAlign=middle;spacingLeft=4;spacingRight=4;overflow=hidden;points=[[0,0.5],[1,0.5]];portConstraint=eastwest;rotatable=0;whiteSpace=wrap;html=1;fontSize=19;" parent="6VArdtB1oWuOT29RWD3p-115" vertex="1">
          <mxGeometry y="60" width="280" height="30" as="geometry" />
        </mxCell>
        <mxCell id="6VArdtB1oWuOT29RWD3p-118" value="BorrowerPhone" style="text;strokeColor=default;fillColor=default;align=left;verticalAlign=middle;spacingLeft=4;spacingRight=4;overflow=hidden;points=[[0,0.5],[1,0.5]];portConstraint=eastwest;rotatable=0;whiteSpace=wrap;html=1;fontSize=19;" parent="6VArdtB1oWuOT29RWD3p-115" vertex="1">
          <mxGeometry y="90" width="280" height="30" as="geometry" />
        </mxCell>
        <mxCell id="6VArdtB1oWuOT29RWD3p-121" value="&lt;font style=&quot;font-size: 21px;&quot;&gt;1..*&lt;/font&gt;" style="text;html=1;align=center;verticalAlign=middle;whiteSpace=wrap;rounded=0;" parent="1" vertex="1">
          <mxGeometry x="602" y="389.75" width="60" height="30" as="geometry" />
        </mxCell>
        <mxCell id="6VArdtB1oWuOT29RWD3p-122" value="&lt;font style=&quot;font-size: 21px;&quot;&gt;1..1&lt;/font&gt;" style="text;html=1;align=center;verticalAlign=middle;whiteSpace=wrap;rounded=0;" parent="1" vertex="1">
          <mxGeometry x="343" y="274.75" width="60" height="30" as="geometry" />
        </mxCell>
        <mxCell id="6VArdtB1oWuOT29RWD3p-123" value="&lt;font style=&quot;font-size: 21px;&quot;&gt;1..*&lt;/font&gt;" style="text;html=1;align=center;verticalAlign=middle;whiteSpace=wrap;rounded=0;" parent="1" vertex="1">
          <mxGeometry x="942" y="379.75" width="60" height="30" as="geometry" />
        </mxCell>
        <mxCell id="6VArdtB1oWuOT29RWD3p-124" value="&lt;font style=&quot;font-size: 21px;&quot;&gt;0..1&lt;/font&gt;" style="text;html=1;align=center;verticalAlign=middle;whiteSpace=wrap;rounded=0;" parent="1" vertex="1">
          <mxGeometry x="1203" y="334.75" width="60" height="30" as="geometry" />
        </mxCell>
        <mxCell id="6VArdtB1oWuOT29RWD3p-125" value="Every borrower needs to have at least 1 item to exist." style="text;html=1;align=center;verticalAlign=middle;whiteSpace=wrap;rounded=0;fillColor=#f0a30a;fontColor=#000000;strokeColor=#BD7000;" parent="1" vertex="1">
          <mxGeometry x="951" y="256.25" width="130" height="69" as="geometry" />
        </mxCell>
        <mxCell id="6VArdtB1oWuOT29RWD3p-126" value="Items do not need to be borrowed to exist. Since it is a copy table, it represents each book individually and each book can be borrowed by one person." style="text;html=1;align=center;verticalAlign=middle;whiteSpace=wrap;rounded=0;fillColor=#f0a30a;fontColor=#000000;strokeColor=#BD7000;" parent="1" vertex="1">
          <mxGeometry x="1123" y="364.75" width="130" height="139" as="geometry" />
        </mxCell>
        <mxCell id="6VArdtB1oWuOT29RWD3p-127" value="Every item may have multiple borrowers or copies of them." style="text;html=1;align=center;verticalAlign=middle;whiteSpace=wrap;rounded=0;fillColor=#f0a30a;fontColor=#000000;strokeColor=#BD7000;" parent="1" vertex="1">
          <mxGeometry x="472" y="395.75" width="130" height="69" as="geometry" />
        </mxCell>
        <mxCell id="6VArdtB1oWuOT29RWD3p-129" value="" style="endArrow=none;html=1;rounded=0;entryX=1;entryY=0.5;entryDx=0;entryDy=0;exitX=0;exitY=0.5;exitDx=0;exitDy=0;" parent="1" source="su5ghCWvjd012x-jis3U-24" target="su5ghCWvjd012x-jis3U-3" edge="1">
          <mxGeometry width="50" height="50" relative="1" as="geometry">
            <mxPoint x="1133" y="332.75" as="sourcePoint" />
            <mxPoint x="941" y="333.75" as="targetPoint" />
            <Array as="points">
              <mxPoint x="1043" y="336.75" />
              <mxPoint x="1043" y="411.75" />
            </Array>
          </mxGeometry>
        </mxCell>
        <mxCell id="6VArdtB1oWuOT29RWD3p-131" value="&lt;font style=&quot;font-size: 21px;&quot;&gt;Entity&lt;/font&gt;" style="text;html=1;align=center;verticalAlign=middle;whiteSpace=wrap;rounded=0;" parent="1" vertex="1">
          <mxGeometry x="170" y="228.75" width="60" height="30" as="geometry" />
        </mxCell>
        <mxCell id="6VArdtB1oWuOT29RWD3p-133" value="&lt;font style=&quot;font-size: 21px;&quot;&gt;Entity&lt;/font&gt;" style="text;html=1;align=center;verticalAlign=middle;whiteSpace=wrap;rounded=0;" parent="1" vertex="1">
          <mxGeometry x="1375" y="259.75" width="60" height="30" as="geometry" />
        </mxCell>
        <mxCell id="6VArdtB1oWuOT29RWD3p-134" value="&lt;font style=&quot;font-size: 21px;&quot;&gt;Entity&lt;/font&gt;" style="text;html=1;align=center;verticalAlign=middle;whiteSpace=wrap;rounded=0;" parent="1" vertex="1">
          <mxGeometry x="773" y="708.75" width="60" height="30" as="geometry" />
        </mxCell>
        <mxCell id="6VArdtB1oWuOT29RWD3p-135" value="&lt;font style=&quot;font-size: 21px;&quot;&gt;Entity&lt;/font&gt;" style="text;html=1;align=center;verticalAlign=middle;whiteSpace=wrap;rounded=0;" parent="1" vertex="1">
          <mxGeometry x="773" y="858.75" width="60" height="30" as="geometry" />
        </mxCell>
        <mxCell id="6VArdtB1oWuOT29RWD3p-136" value="&lt;font style=&quot;font-size: 21px;&quot;&gt;Entity&lt;/font&gt;" style="text;html=1;align=center;verticalAlign=middle;whiteSpace=wrap;rounded=0;" parent="1" vertex="1">
          <mxGeometry x="773" y="1028.75" width="60" height="30" as="geometry" />
        </mxCell>
        <mxCell id="6VArdtB1oWuOT29RWD3p-141" value="&lt;font style=&quot;font-size: 16px;&quot;&gt;Added by&lt;/font&gt;" style="text;html=1;align=center;verticalAlign=middle;whiteSpace=wrap;rounded=0;" parent="1" vertex="1">
          <mxGeometry x="393" y="918.75" width="110" height="30" as="geometry" />
        </mxCell>
        <mxCell id="6VArdtB1oWuOT29RWD3p-146" value="" style="endArrow=none;html=1;rounded=0;exitX=1;exitY=0.5;exitDx=0;exitDy=0;" parent="1" source="6VArdtB1oWuOT29RWD3p-72" edge="1">
          <mxGeometry width="50" height="50" relative="1" as="geometry">
            <mxPoint x="343" y="1053.75" as="sourcePoint" />
            <mxPoint x="503" y="1023.75" as="targetPoint" />
            <Array as="points" />
          </mxGeometry>
        </mxCell>
        <mxCell id="6VArdtB1oWuOT29RWD3p-142" value="" style="triangle;whiteSpace=wrap;html=1;rotation=90;" parent="1" vertex="1">
          <mxGeometry x="493" y="1058.75" width="20" height="30" as="geometry" />
        </mxCell>
        <mxCell id="6VArdtB1oWuOT29RWD3p-147" value="&lt;font style=&quot;font-size: 16px;&quot;&gt;Published&lt;/font&gt;&lt;div&gt;&lt;font style=&quot;font-size: 16px;&quot;&gt;by&lt;/font&gt;&lt;/div&gt;" style="text;html=1;align=center;verticalAlign=middle;whiteSpace=wrap;rounded=0;" parent="1" vertex="1">
          <mxGeometry x="493" y="1038.75" width="110" height="30" as="geometry" />
        </mxCell>
        <mxCell id="6VArdtB1oWuOT29RWD3p-149" value="" style="endArrow=none;html=1;rounded=0;exitX=1;exitY=0.5;exitDx=0;exitDy=0;entryX=1;entryY=0.5;entryDx=0;entryDy=0;strokeColor=default;" parent="1" source="6VArdtB1oWuOT29RWD3p-18" target="6VArdtB1oWuOT29RWD3p-148" edge="1">
          <mxGeometry width="50" height="50" relative="1" as="geometry">
            <mxPoint x="943" y="933.75" as="sourcePoint" />
            <mxPoint x="943" y="783.75" as="targetPoint" />
            <Array as="points">
              <mxPoint x="1053" y="933.75" />
              <mxPoint x="1053" y="783.75" />
            </Array>
          </mxGeometry>
        </mxCell>
        <mxCell id="6VArdtB1oWuOT29RWD3p-148" value="" style="triangle;whiteSpace=wrap;html=1;rotation=90;" parent="1" vertex="1">
          <mxGeometry x="1043" y="838.75" width="20" height="30" as="geometry" />
        </mxCell>
        <mxCell id="6VArdtB1oWuOT29RWD3p-150" value="&lt;font style=&quot;font-size: 16px;&quot;&gt;Manages&lt;/font&gt;" style="text;html=1;align=center;verticalAlign=middle;whiteSpace=wrap;rounded=0;" parent="1" vertex="1">
          <mxGeometry x="1053" y="838.75" width="110" height="30" as="geometry" />
        </mxCell>
        <mxCell id="6VArdtB1oWuOT29RWD3p-154" value="&lt;font style=&quot;font-size: 16px;&quot;&gt;Borrows&lt;/font&gt;" style="text;html=1;align=center;verticalAlign=middle;whiteSpace=wrap;rounded=0;" parent="1" vertex="1">
          <mxGeometry x="1089" y="289.75" width="110" height="30" as="geometry" />
        </mxCell>
        <mxCell id="6VArdtB1oWuOT29RWD3p-158" value="" style="endArrow=none;html=1;rounded=0;exitX=1;exitY=0.5;exitDx=0;exitDy=0;entryX=-0.003;entryY=0.756;entryDx=0;entryDy=0;entryPerimeter=0;" parent="1" source="6VArdtB1oWuOT29RWD3p-8" target="su5ghCWvjd012x-jis3U-2" edge="1">
          <mxGeometry width="50" height="50" relative="1" as="geometry">
            <mxPoint x="343" y="303.75" as="sourcePoint" />
            <mxPoint x="503" y="303.75" as="targetPoint" />
            <Array as="points">
              <mxPoint x="463" y="303.75" />
              <mxPoint x="463" y="389.75" />
            </Array>
          </mxGeometry>
        </mxCell>
        <mxCell id="6VArdtB1oWuOT29RWD3p-156" value="" style="triangle;whiteSpace=wrap;html=1;rotation=90;" parent="1" vertex="1">
          <mxGeometry x="453" y="330.75" width="20" height="30" as="geometry" />
        </mxCell>
        <mxCell id="6VArdtB1oWuOT29RWD3p-159" value="&lt;font style=&quot;font-size: 16px;&quot;&gt;has&lt;/font&gt;" style="text;html=1;align=center;verticalAlign=middle;whiteSpace=wrap;rounded=0;" parent="1" vertex="1">
          <mxGeometry x="443" y="330.75" width="110" height="30" as="geometry" />
        </mxCell>
        <mxCell id="su5ghCWvjd012x-jis3U-1" value="book_copy" style="swimlane;fontStyle=0;childLayout=stackLayout;horizontal=1;startSize=30;horizontalStack=0;resizeParent=1;resizeParentMax=0;resizeLast=0;collapsible=1;marginBottom=0;whiteSpace=wrap;html=1;fontSize=25;strokeColor=default;fillColor=default;" parent="1" vertex="1">
          <mxGeometry x="662" y="336.75" width="280" height="180" as="geometry">
            <mxRectangle x="1409" y="800" width="80" height="40" as="alternateBounds" />
          </mxGeometry>
        </mxCell>
        <mxCell id="su5ghCWvjd012x-jis3U-2" value="ISBN (PK)" style="text;strokeColor=default;fillColor=default;align=left;verticalAlign=middle;spacingLeft=4;spacingRight=4;overflow=hidden;points=[[0,0.5],[1,0.5]];portConstraint=eastwest;rotatable=0;whiteSpace=wrap;html=1;fontSize=19;" parent="su5ghCWvjd012x-jis3U-1" vertex="1">
          <mxGeometry y="30" width="280" height="30" as="geometry" />
        </mxCell>
        <mxCell id="su5ghCWvjd012x-jis3U-3" value="BorrowerID&amp;nbsp;(PK)" style="text;strokeColor=default;fillColor=default;align=left;verticalAlign=middle;spacingLeft=4;spacingRight=4;overflow=hidden;points=[[0,0.5],[1,0.5]];portConstraint=eastwest;rotatable=0;whiteSpace=wrap;html=1;fontSize=19;" parent="su5ghCWvjd012x-jis3U-1" vertex="1">
          <mxGeometry y="60" width="280" height="30" as="geometry" />
        </mxCell>
        <mxCell id="su5ghCWvjd012x-jis3U-4" value="BranchID" style="text;strokeColor=default;fillColor=default;align=left;verticalAlign=middle;spacingLeft=4;spacingRight=4;overflow=hidden;points=[[0,0.5],[1,0.5]];portConstraint=eastwest;rotatable=0;whiteSpace=wrap;html=1;fontSize=19;" parent="su5ghCWvjd012x-jis3U-1" vertex="1">
          <mxGeometry y="90" width="280" height="30" as="geometry" />
        </mxCell>
        <mxCell id="su5ghCWvjd012x-jis3U-6" value="BorrowDate" style="text;strokeColor=default;fillColor=default;align=left;verticalAlign=middle;spacingLeft=4;spacingRight=4;overflow=hidden;points=[[0,0.5],[1,0.5]];portConstraint=eastwest;rotatable=0;whiteSpace=wrap;html=1;fontSize=19;" parent="su5ghCWvjd012x-jis3U-1" vertex="1">
          <mxGeometry y="120" width="280" height="30" as="geometry" />
        </mxCell>
        <mxCell id="su5ghCWvjd012x-jis3U-7" value="DueDate" style="text;strokeColor=default;fillColor=default;align=left;verticalAlign=middle;spacingLeft=4;spacingRight=4;overflow=hidden;points=[[0,0.5],[1,0.5]];portConstraint=eastwest;rotatable=0;whiteSpace=wrap;html=1;fontSize=19;" parent="su5ghCWvjd012x-jis3U-1" vertex="1">
          <mxGeometry y="150" width="280" height="30" as="geometry" />
        </mxCell>
        <mxCell id="su5ghCWvjd012x-jis3U-5" value="&lt;font style=&quot;font-size: 21px;&quot;&gt;Entity&lt;/font&gt;" style="text;html=1;align=center;verticalAlign=middle;whiteSpace=wrap;rounded=0;" parent="1" vertex="1">
          <mxGeometry x="774" y="306.75" width="60" height="30" as="geometry" />
        </mxCell>
        <mxCell id="su5ghCWvjd012x-jis3U-8" value="author_table" style="swimlane;fontStyle=0;childLayout=stackLayout;horizontal=1;startSize=30;horizontalStack=0;resizeParent=1;resizeParentMax=0;resizeLast=0;collapsible=1;marginBottom=0;whiteSpace=wrap;html=1;fontSize=25;strokeColor=default;fillColor=default;" parent="1" vertex="1">
          <mxGeometry x="1173" y="106.75" width="280" height="90" as="geometry">
            <mxRectangle x="960" y="590" width="80" height="40" as="alternateBounds" />
          </mxGeometry>
        </mxCell>
        <mxCell id="su5ghCWvjd012x-jis3U-9" value="AuthorID&amp;nbsp;(PK)" style="text;strokeColor=default;fillColor=default;align=left;verticalAlign=middle;spacingLeft=4;spacingRight=4;overflow=hidden;points=[[0,0.5],[1,0.5]];portConstraint=eastwest;rotatable=0;whiteSpace=wrap;html=1;fontSize=19;" parent="su5ghCWvjd012x-jis3U-8" vertex="1">
          <mxGeometry y="30" width="280" height="30" as="geometry" />
        </mxCell>
        <mxCell id="su5ghCWvjd012x-jis3U-10" value="Author" style="text;strokeColor=default;fillColor=default;align=left;verticalAlign=middle;spacingLeft=4;spacingRight=4;overflow=hidden;points=[[0,0.5],[1,0.5]];portConstraint=eastwest;rotatable=0;whiteSpace=wrap;html=1;fontSize=19;" parent="su5ghCWvjd012x-jis3U-8" vertex="1">
          <mxGeometry y="60" width="280" height="30" as="geometry" />
        </mxCell>
        <mxCell id="su5ghCWvjd012x-jis3U-11" value="&lt;font style=&quot;font-size: 21px;&quot;&gt;Entity&lt;/font&gt;" style="text;html=1;align=center;verticalAlign=middle;whiteSpace=wrap;rounded=0;" parent="1" vertex="1">
          <mxGeometry x="1283" y="76.75" width="60" height="30" as="geometry" />
        </mxCell>
        <mxCell id="su5ghCWvjd012x-jis3U-12" value="branch" style="swimlane;fontStyle=0;childLayout=stackLayout;horizontal=1;startSize=30;horizontalStack=0;resizeParent=1;resizeParentMax=0;resizeLast=0;collapsible=1;marginBottom=0;whiteSpace=wrap;html=1;fontSize=25;strokeColor=default;fillColor=default;" parent="1" vertex="1">
          <mxGeometry x="1263" y="516.75" width="280" height="120" as="geometry">
            <mxRectangle x="960" y="590" width="80" height="40" as="alternateBounds" />
          </mxGeometry>
        </mxCell>
        <mxCell id="su5ghCWvjd012x-jis3U-13" value="BranchID&amp;nbsp;(PK)" style="text;strokeColor=default;fillColor=default;align=left;verticalAlign=middle;spacingLeft=4;spacingRight=4;overflow=hidden;points=[[0,0.5],[1,0.5]];portConstraint=eastwest;rotatable=0;whiteSpace=wrap;html=1;fontSize=19;" parent="su5ghCWvjd012x-jis3U-12" vertex="1">
          <mxGeometry y="30" width="280" height="30" as="geometry" />
        </mxCell>
        <mxCell id="su5ghCWvjd012x-jis3U-14" value="BranchName" style="text;strokeColor=default;fillColor=default;align=left;verticalAlign=middle;spacingLeft=4;spacingRight=4;overflow=hidden;points=[[0,0.5],[1,0.5]];portConstraint=eastwest;rotatable=0;whiteSpace=wrap;html=1;fontSize=19;" parent="su5ghCWvjd012x-jis3U-12" vertex="1">
          <mxGeometry y="60" width="280" height="30" as="geometry" />
        </mxCell>
        <mxCell id="su5ghCWvjd012x-jis3U-15" value="BranchAddress" style="text;strokeColor=default;fillColor=default;align=left;verticalAlign=middle;spacingLeft=4;spacingRight=4;overflow=hidden;points=[[0,0.5],[1,0.5]];portConstraint=eastwest;rotatable=0;whiteSpace=wrap;html=1;fontSize=19;" parent="su5ghCWvjd012x-jis3U-12" vertex="1">
          <mxGeometry y="90" width="280" height="30" as="geometry" />
        </mxCell>
        <mxCell id="su5ghCWvjd012x-jis3U-16" value="&lt;font style=&quot;font-size: 21px;&quot;&gt;Entity&lt;/font&gt;" style="text;html=1;align=center;verticalAlign=middle;whiteSpace=wrap;rounded=0;" parent="1" vertex="1">
          <mxGeometry x="1375" y="486.75" width="60" height="30" as="geometry" />
        </mxCell>
        <mxCell id="su5ghCWvjd012x-jis3U-17" value="isbn_authorid" style="swimlane;fontStyle=0;childLayout=stackLayout;horizontal=1;startSize=30;horizontalStack=0;resizeParent=1;resizeParentMax=0;resizeLast=0;collapsible=1;marginBottom=0;whiteSpace=wrap;html=1;fontSize=25;strokeColor=default;fillColor=default;" parent="1" vertex="1">
          <mxGeometry x="623" y="106.75" width="280" height="90" as="geometry">
            <mxRectangle x="960" y="590" width="80" height="40" as="alternateBounds" />
          </mxGeometry>
        </mxCell>
        <mxCell id="su5ghCWvjd012x-jis3U-18" value="ISBN&amp;nbsp;(PK)" style="text;strokeColor=default;fillColor=default;align=left;verticalAlign=middle;spacingLeft=4;spacingRight=4;overflow=hidden;points=[[0,0.5],[1,0.5]];portConstraint=eastwest;rotatable=0;whiteSpace=wrap;html=1;fontSize=19;" parent="su5ghCWvjd012x-jis3U-17" vertex="1">
          <mxGeometry y="30" width="280" height="30" as="geometry" />
        </mxCell>
        <mxCell id="su5ghCWvjd012x-jis3U-19" value="AuthorID&amp;nbsp;(PK)" style="text;strokeColor=default;fillColor=default;align=left;verticalAlign=middle;spacingLeft=4;spacingRight=4;overflow=hidden;points=[[0,0.5],[1,0.5]];portConstraint=eastwest;rotatable=0;whiteSpace=wrap;html=1;fontSize=19;" parent="su5ghCWvjd012x-jis3U-17" vertex="1">
          <mxGeometry y="60" width="280" height="30" as="geometry" />
        </mxCell>
        <mxCell id="su5ghCWvjd012x-jis3U-20" value="&lt;font style=&quot;font-size: 21px;&quot;&gt;Entity&lt;/font&gt;" style="text;html=1;align=center;verticalAlign=middle;whiteSpace=wrap;rounded=0;" parent="1" vertex="1">
          <mxGeometry x="733" y="76.75" width="60" height="30" as="geometry" />
        </mxCell>
        <mxCell id="su5ghCWvjd012x-jis3U-21" value="" style="endArrow=none;html=1;rounded=0;exitX=1;exitY=0.5;exitDx=0;exitDy=0;" parent="1" source="6VArdtB1oWuOT29RWD3p-76" edge="1">
          <mxGeometry width="50" height="50" relative="1" as="geometry">
            <mxPoint x="343" y="903.75" as="sourcePoint" />
            <mxPoint x="503" y="903.75" as="targetPoint" />
            <Array as="points" />
          </mxGeometry>
        </mxCell>
        <mxCell id="6VArdtB1oWuOT29RWD3p-140" value="" style="triangle;whiteSpace=wrap;html=1;rotation=90;" parent="1" vertex="1">
          <mxGeometry x="493" y="918.75" width="20" height="30" as="geometry" />
        </mxCell>
        <mxCell id="su5ghCWvjd012x-jis3U-25" value="" style="endArrow=none;html=1;rounded=0;entryX=1;entryY=0.5;entryDx=0;entryDy=0;exitX=0;exitY=0.5;exitDx=0;exitDy=0;" parent="1" source="6VArdtB1oWuOT29RWD3p-116" target="su5ghCWvjd012x-jis3U-24" edge="1">
          <mxGeometry width="50" height="50" relative="1" as="geometry">
            <mxPoint x="1263" y="334.75" as="sourcePoint" />
            <mxPoint x="941" y="333.75" as="targetPoint" />
            <Array as="points" />
          </mxGeometry>
        </mxCell>
        <mxCell id="su5ghCWvjd012x-jis3U-24" value="" style="triangle;whiteSpace=wrap;html=1;rotation=-180;" parent="1" vertex="1">
          <mxGeometry x="1129" y="319.75" width="20" height="30" as="geometry" />
        </mxCell>
        <mxCell id="su5ghCWvjd012x-jis3U-29" value="" style="endArrow=none;html=1;rounded=0;exitX=1;exitY=0.5;exitDx=0;exitDy=0;entryX=0;entryY=0.5;entryDx=0;entryDy=0;" parent="1" source="su5ghCWvjd012x-jis3U-4" target="su5ghCWvjd012x-jis3U-13" edge="1">
          <mxGeometry width="50" height="50" relative="1" as="geometry">
            <mxPoint x="1073" y="526.75" as="sourcePoint" />
            <mxPoint x="1123" y="476.75" as="targetPoint" />
            <Array as="points">
              <mxPoint x="1043" y="441.75" />
              <mxPoint x="1043" y="561.75" />
            </Array>
          </mxGeometry>
        </mxCell>
        <mxCell id="su5ghCWvjd012x-jis3U-32" value="&lt;font style=&quot;font-size: 21px;&quot;&gt;0..*&lt;/font&gt;" style="text;html=1;align=center;verticalAlign=middle;whiteSpace=wrap;rounded=0;" parent="1" vertex="1">
          <mxGeometry x="942" y="446.75" width="60" height="30" as="geometry" />
        </mxCell>
        <mxCell id="su5ghCWvjd012x-jis3U-33" value="&lt;font style=&quot;font-size: 21px;&quot;&gt;1..1&lt;/font&gt;" style="text;html=1;align=center;verticalAlign=middle;whiteSpace=wrap;rounded=0;" parent="1" vertex="1">
          <mxGeometry x="1199" y="563.75" width="60" height="30" as="geometry" />
        </mxCell>
        <mxCell id="su5ghCWvjd012x-jis3U-34" value="&lt;span style=&quot;font-size: 16px;&quot;&gt;Has&lt;/span&gt;" style="text;html=1;align=center;verticalAlign=middle;whiteSpace=wrap;rounded=0;" parent="1" vertex="1">
          <mxGeometry x="1056" y="576.75" width="110" height="30" as="geometry" />
        </mxCell>
        <mxCell id="su5ghCWvjd012x-jis3U-35" value="" style="triangle;whiteSpace=wrap;html=1;rotation=-180;" parent="1" vertex="1">
          <mxGeometry x="1097" y="546.75" width="20" height="30" as="geometry" />
        </mxCell>
        <mxCell id="su5ghCWvjd012x-jis3U-36" value="Branches&#39;s existence does not depend on books. They can contain multiple books." style="text;html=1;align=center;verticalAlign=middle;whiteSpace=wrap;rounded=0;fillColor=#f0a30a;fontColor=#000000;strokeColor=#BD7000;" parent="1" vertex="1">
          <mxGeometry x="907" y="527.25" width="130" height="69" as="geometry" />
        </mxCell>
        <mxCell id="su5ghCWvjd012x-jis3U-37" value="A book should be registered in only one branch." style="text;html=1;align=center;verticalAlign=middle;whiteSpace=wrap;rounded=0;fillColor=#f0a30a;fontColor=#000000;strokeColor=#BD7000;" parent="1" vertex="1">
          <mxGeometry x="1140" y="591.75" width="116" height="75" as="geometry" />
        </mxCell>
        <mxCell id="su5ghCWvjd012x-jis3U-38" value="&lt;font style=&quot;font-size: 21px;&quot;&gt;1..*&lt;/font&gt;" style="text;html=1;align=center;verticalAlign=middle;whiteSpace=wrap;rounded=0;" parent="1" vertex="1">
          <mxGeometry x="903" y="152.25" width="60" height="30" as="geometry" />
        </mxCell>
        <mxCell id="su5ghCWvjd012x-jis3U-39" value="&lt;font style=&quot;font-size: 21px;&quot;&gt;1..1&lt;/font&gt;" style="text;html=1;align=center;verticalAlign=middle;whiteSpace=wrap;rounded=0;" parent="1" vertex="1">
          <mxGeometry x="1113" y="120.25" width="60" height="30" as="geometry" />
        </mxCell>
        <mxCell id="su5ghCWvjd012x-jis3U-40" value="&lt;font style=&quot;font-size: 21px;&quot;&gt;1..*&lt;/font&gt;" style="text;html=1;align=center;verticalAlign=middle;whiteSpace=wrap;rounded=0;" parent="1" vertex="1">
          <mxGeometry x="602" y="349.75" width="60" height="30" as="geometry" />
        </mxCell>
        <mxCell id="su5ghCWvjd012x-jis3U-41" value="&lt;font style=&quot;font-size: 21px;&quot;&gt;1..*&lt;/font&gt;" style="text;html=1;align=center;verticalAlign=middle;whiteSpace=wrap;rounded=0;" parent="1" vertex="1">
          <mxGeometry x="563" y="122.25" width="60" height="30" as="geometry" />
        </mxCell>
        <mxCell id="su5ghCWvjd012x-jis3U-42" value="Every item needs to have at least one author." style="text;html=1;align=center;verticalAlign=middle;whiteSpace=wrap;rounded=0;fillColor=#f0a30a;fontColor=#000000;strokeColor=#BD7000;" parent="1" vertex="1">
          <mxGeometry x="423" y="150.25" width="130" height="69" as="geometry" />
        </mxCell>
        <mxCell id="su5ghCWvjd012x-jis3U-44" value="&lt;font style=&quot;font-size: 16px;&quot;&gt;writes&lt;/font&gt;" style="text;html=1;align=center;verticalAlign=middle;whiteSpace=wrap;rounded=0;" parent="1" vertex="1">
          <mxGeometry x="966" y="138.75" width="110" height="30" as="geometry" />
        </mxCell>
        <mxCell id="su5ghCWvjd012x-jis3U-46" value="" style="endArrow=none;html=1;rounded=0;entryX=1;entryY=1;entryDx=0;entryDy=0;exitX=1;exitY=0.5;exitDx=0;exitDy=0;" parent="1" source="su5ghCWvjd012x-jis3U-19" target="su5ghCWvjd012x-jis3U-39" edge="1">
          <mxGeometry width="50" height="50" relative="1" as="geometry">
            <mxPoint x="1023" y="256.75" as="sourcePoint" />
            <mxPoint x="1073" y="206.75" as="targetPoint" />
            <Array as="points">
              <mxPoint x="1053" y="181.75" />
              <mxPoint x="1053" y="150.75" />
            </Array>
          </mxGeometry>
        </mxCell>
        <mxCell id="su5ghCWvjd012x-jis3U-43" value="" style="triangle;whiteSpace=wrap;html=1;rotation=-180;" parent="1" vertex="1">
          <mxGeometry x="1006" y="166.75" width="20" height="30" as="geometry" />
        </mxCell>
        <mxCell id="su5ghCWvjd012x-jis3U-50" value="" style="endArrow=none;html=1;rounded=0;entryX=0;entryY=0.5;entryDx=0;entryDy=0;exitX=0;exitY=0.339;exitDx=0;exitDy=0;exitPerimeter=0;" parent="1" target="su5ghCWvjd012x-jis3U-18" edge="1">
          <mxGeometry width="50" height="50" relative="1" as="geometry">
            <mxPoint x="662" y="376.91999999999985" as="sourcePoint" />
            <mxPoint x="603" y="176.75" as="targetPoint" />
            <Array as="points">
              <mxPoint x="563" y="376.75" />
              <mxPoint x="563" y="151.75" />
            </Array>
          </mxGeometry>
        </mxCell>
        <mxCell id="su5ghCWvjd012x-jis3U-53" value="Authors can have multiple books but each authorID belongs to only one person." style="text;html=1;align=center;verticalAlign=middle;whiteSpace=wrap;rounded=0;fillColor=#f0a30a;fontColor=#000000;strokeColor=#BD7000;" parent="1" vertex="1">
          <mxGeometry x="919" y="70" width="230" height="43.5" as="geometry" />
        </mxCell>
        <mxCell id="nPi8ARCnB-srjldV8ho5-2" value="Internal storage will have the same design as long as the development environment supports." style="shape=note;whiteSpace=wrap;html=1;backgroundOutline=1;darkOpacity=0.05;" vertex="1" parent="1">
          <mxGeometry x="1323" y="974.25" width="160" height="125.75" as="geometry" />
        </mxCell>
        <mxCell id="nPi8ARCnB-srjldV8ho5-3" value="The scheme may be obligated to some changes during the developing phase." style="shape=note;whiteSpace=wrap;html=1;backgroundOutline=1;darkOpacity=0.05;" vertex="1" parent="1">
          <mxGeometry x="1323" y="1102.75" width="160" height="125.75" as="geometry" />
        </mxCell>
      </root>
    </mxGraphModel>
  </diagram>
</mxfile>
